<svg width="32" height="32" viewBox="0 0 32 32" fill="none" xmlns="http://www.w3.org/2000/svg">
<g id="bag-svgrepo-com 1">
<g id="Group">
<g id="Group_2">
<path id="Vector" d="M29.7188 29.7437L27.875 9.15625C27.8187 8.5 27.2625 7.99375 26.5938 7.99375H21.75C20.6187 4.2875 18.6812 0.6875 16 0.6875C13.3125 0.6875 11.3812 4.2875 10.2375 7.99375H5.39375C4.73125 7.99375 4.175 8.5 4.1125 9.15625L2.2625 29.925C2.19375 30.85 2.8375 31.3125 3.54375 31.3125H28.4625C28.4687 31.3125 28.4688 31.3125 28.475 31.3125C29.2875 31.3125 29.8188 30.6125 29.7188 29.7437ZM16 3.2375C16.8937 3.2375 18.1125 5.3625 19.0437 7.99375H12.9562C13.8812 5.3625 15.1062 3.2375 16 3.2375ZM4.9375 28.7625L6.56875 10.55H9.575C9.2125 12.2312 9.03125 13.75 9.03125 14.75C9.03125 15.4563 9.60625 16.025 10.3125 16.025C11.0187 16.025 11.5937 15.4563 11.5937 14.75C11.5937 13.5125 11.825 12.0312 12.1875 10.55H19.8062C20.1687 12.0312 20.4 13.5125 20.4 14.75C20.4 15.4563 20.975 16.025 21.6812 16.025C22.3875 16.025 22.9625 15.4563 22.9625 14.75C22.9625 13.75 22.7812 12.2312 22.4187 10.55H25.425L27.0562 28.7625H4.9375Z" fill="black"/>
</g>
</g>
</g>
</svg>
