<svg width="49" height="48" viewBox="0 0 49 48" fill="none" xmlns="http://www.w3.org/2000/svg">
<g id="Fox">
<path id="Vector" d="M8.24565 27.7238C13.8482 28.7334 17.7881 31.4201 21.2626 35.2327C22.5375 33.5305 24.897 33.0917 26.6897 34.2537C27.0938 34.5163 27.4489 34.8483 27.7367 35.2327C31.2146 31.4173 35.166 28.7239 40.7761 27.7197C39.7331 26.0556 38.5609 24.6684 36.8566 23.4791C36.5866 23.29 36.5206 22.9185 36.7083 22.6478L36.707 22.6471C36.7233 22.6233 42.4579 14.5354 38.448 5.41273C38.4112 5.32836 38.3758 5.26781 38.3235 5.21815C38.1636 5.06779 37.818 5.15148 37.3581 5.3896C36.7206 5.72092 35.96 6.33391 35.1619 7.09112C32.8073 9.32672 30.2179 12.7454 29.3654 14.0857C29.2654 14.2442 29.1035 14.3388 28.9307 14.3599L24.6173 15.2355C24.5323 15.2518 24.4486 15.2504 24.3697 15.2327L20.023 14.3503C19.857 14.317 19.7203 14.2177 19.6359 14.085L19.6345 14.0857C18.7821 12.7454 16.192 9.32672 13.838 7.09112C13.04 6.33391 12.2794 5.72092 11.6412 5.3896C11.182 5.15148 10.8364 5.06779 10.6765 5.21815C10.6323 5.25965 10.5908 5.3236 10.552 5.41273C6.54208 14.5354 12.2767 22.6233 12.293 22.6471C12.4821 22.9185 12.4148 23.2921 12.1426 23.4812C12.1304 23.49 12.1175 23.4982 12.1039 23.5064C11.0813 24.2248 10.2649 25.0099 9.57435 25.8372C9.06818 26.4427 8.62868 27.0741 8.22388 27.7197L8.24565 27.7238ZM18.6433 25.2514C19.4597 25.8828 20.1074 26.7169 20.489 27.7007C20.5142 27.7558 20.5312 27.8149 20.5387 27.8782C20.5775 28.2068 20.3421 28.5048 20.0135 28.5443C16.158 29.0028 15.9934 28.3783 15.1429 25.1548C15.111 25.0351 15.0783 24.9113 15.0443 24.7834C15.0171 24.699 15.0089 24.6071 15.0225 24.5133C15.0701 24.186 15.3742 23.9595 15.7022 24.0071C16.7887 24.1683 17.8051 24.6024 18.6433 25.2514ZM28.5109 27.7007C29.292 25.6889 31.1772 24.3194 33.2978 24.0071C33.625 23.9595 33.9298 24.186 33.9775 24.5133C33.9911 24.6071 33.9822 24.699 33.955 24.7834C33.921 24.9113 33.8883 25.0351 33.857 25.1548C33.0066 28.3783 32.842 29.0028 28.9865 28.5443C28.6579 28.5048 28.4225 28.2068 28.4613 27.8782C28.4687 27.8149 28.4858 27.7558 28.5109 27.7007Z" fill="black"/>
<path id="Vector_2" d="M26.9203 36.1579C26.0787 34.7986 24.2942 34.3931 22.9614 35.2572C22.6056 35.4878 22.3035 35.796 22.0797 36.1579C22.9192 37.1376 23.7172 38.1534 24.4996 39.1814C25.2827 38.1534 26.0801 37.1376 26.9203 36.1579ZM31.088 26.1985C30.6445 26.5407 30.2648 26.9577 29.973 27.434C31.7902 27.551 32.0943 27.072 32.5481 25.4167C32.016 25.5977 31.5214 25.8624 31.088 26.1985ZM19.0263 27.434C18.4419 26.4794 17.5139 25.778 16.4519 25.4167C16.9057 27.072 17.2091 27.551 19.0263 27.434Z" fill="black"/>
<path id="Vector_3" d="M20.9177 36.6458C20.9109 36.639 20.9048 36.6322 20.8993 36.6247C19.7713 35.3354 18.5671 34.1217 17.2228 33.0488C14.696 31.0316 11.6535 29.492 7.65244 28.8375C6.87413 31.9038 12.0556 34.981 17.2371 38.0575C19.8986 39.6379 22.5594 41.2183 24.4997 42.8573C26.4407 41.2183 29.1015 39.6379 31.763 38.0575C36.9445 34.981 42.1252 31.9038 41.3469 28.8375C37.3459 29.492 34.3034 31.0316 31.7773 33.0488C29.1178 35.1715 27.0163 37.833 24.978 40.5346C24.7786 40.7993 24.4031 40.8516 24.1391 40.6523C24.0894 40.6149 24.0479 40.5713 24.0132 40.5237C23.0145 39.1984 22.0015 37.8867 20.9177 36.6458Z" fill="black"/>
</g>
</svg>
