<svg width="32" height="32" viewBox="0 0 32 32" fill="none" xmlns="http://www.w3.org/2000/svg">
<g id="search-svgrepo-com 1" clip-path="url(#clip0_0_577)">
<g id="Group">
<path id="Vector" d="M31.5875 29.6954L23.6612 21.7626C25.5366 19.4625 26.667 16.5351 26.667 13.3397C26.667 5.98848 20.688 0.00292969 13.3303 0.00292969C5.97248 0.00292969 0 5.98848 0 13.3397C0 20.691 5.97901 26.67 13.3368 26.67C16.5256 26.67 19.4596 25.5395 21.7597 23.6641L29.686 31.5904C30.2283 32.1328 31.0517 32.1328 31.594 31.5904C32.1364 31.048 32.1364 30.2378 31.5875 29.6954ZM2.65952 13.3397C2.65952 7.45219 7.44273 2.66898 13.3303 2.66898C19.2178 2.66898 24.0075 7.45872 24.0075 13.3463C24.0075 19.2338 19.2178 24.0235 13.3303 24.0235C7.44273 24.0235 2.65952 19.2272 2.65952 13.3397Z" fill="black"/>
</g>
</g>
<defs>
<clipPath id="clip0_0_577">
<rect width="32" height="32" fill="white"/>
</clipPath>
</defs>
</svg>
